<?xml version="1.0"?><svg width="900" height="900" xmlns="http://www.w3.org/2000/svg">
 <title>Web in the corner</title>

 <metadata id="metadata4">image/svg+xml</metadata>
 <g>
  <title>Layer 1</title>
  <path id="path2141" d="m239.373718,611.747681l13.66449,-348.174622" stroke-miterlimit="4" stroke-linejoin="round" stroke-linecap="round" stroke-width="3" stroke="black" fill-rule="evenodd" fill-opacity="0.75" fill="none"/>
  <path d="m661.367493,355.362762c0.668091,0 0.668091,0 0,0z" id="path1902" stroke-width="1px" stroke="black" fill-rule="evenodd" fill-opacity="0.75" fill="none"/>
  <path d="m370.85437,478.272705l-117.798645,-217.081604l157.489044,164.031677" id="path1904" stroke-miterlimit="4" stroke-linecap="round" stroke-width="3.7" stroke="black" fill-rule="evenodd" fill-opacity="0.75" fill="none"/>
  <path d="m454.17099,385.574005l-200.112991,-124.382996l274.670029,47.108002" id="path1906" stroke-miterlimit="4" stroke-linecap="round" stroke-width="3.7" stroke="black" fill-rule="evenodd" fill-opacity="0.75" fill="none"/>
  <path d="m593.725769,221.120331l-340.169006,40.07077l540.634705,-260.773651" id="path1908" stroke-miterlimit="4" stroke-linecap="round" stroke-width="3.7" stroke="black" fill-rule="evenodd" fill-opacity="0.75" fill="none"/>
  <path d="m524.081177,1.1802l-269.021271,259.008826l133.262207,-258.012976" id="path1910" stroke-miterlimit="4" stroke-linecap="round" stroke-width="3.7" stroke="black" fill-rule="evenodd" fill-opacity="0.75" fill="none"/>
  <path d="m276.60257,1.17188l-22.043732,260.019221l-56.607162,-259.520251" id="path1912" stroke-miterlimit="4" stroke-linecap="round" stroke-width="3.7" stroke="black" fill-rule="evenodd" fill-opacity="0.75" fill="none"/>
  <path d="m100.286087,3.68539l154.773849,256.002598l-255.933887,-204.473846" id="path1914" stroke-miterlimit="4" stroke-linecap="round" stroke-width="3.7" stroke="black" fill-rule="evenodd" fill-opacity="0.75" fill="none"/>
  <path d="m3.57711,169.52565l251.983818,90.162338l-253.514008,14.024963" id="path1916" stroke-miterlimit="4" stroke-linecap="round" stroke-width="3.7" stroke="black" fill-rule="evenodd" fill-opacity="0.75" fill="none"/>
  <path d="m2.0719,364.8815l251.985916,-105.69458l-254.927646,190.825714" id="path1918" stroke-miterlimit="4" stroke-linecap="round" stroke-width="3.7" stroke="black" fill-rule="evenodd" fill-opacity="0.75" fill="none"/>
  <path d="m251.58699,262.158813l-90.757095,182.44751" id="path1920" stroke-miterlimit="4" stroke-linecap="round" stroke-width="3.603469" stroke="black" fill-rule="evenodd" fill-opacity="0.75" fill="none"/>
  <path d="m230.007858,306.785767l43.089493,-4.509369l11.022888,-7.014557l8.016663,-10.020813l6.012482,-17.03537l0,-12.024963l-4.509369,-13.027054l-10.020813,-11.523941l-11.022919,-6.012482l-15.031189,-2.004181l-11.523941,-1.503098l-11.022888,4.008316l-10.521851,9.018738l-12.024963,10.521835l-0.501053,15.532272l6.513535,10.521851l5.010391,9.519775l6.513535,25.55304z" id="path2838" stroke-miterlimit="4" stroke-width="3.6" stroke="black" fill-rule="evenodd" fill-opacity="0.75" fill="none"/>
  <path d="m205.456863,241.650513l7.51561,-14.530182l14.029144,-15.031204l16.534332,-0.501053l15.031219,-2.505188l26.054108,-6.513535l11.523926,17.035385l10.020813,18.037445l8.5177,16.534332l-2.004181,16.534332l-6.513519,23.047852l-10.521851,13.528137l-16.534332,6.012482l-55.114456,3.006226l-9.519775,-27.056183l-7.014572,-11.022888l-5.010406,-16.033295l3.006241,-20.542664z" id="path2840" stroke-miterlimit="4" stroke-width="3.6" stroke="black" fill-rule="evenodd" fill-opacity="0.75" fill="none"/>
  <path d="m224.997467,249.166122l-1.00209,12.024979l2.505203,8.016632l4.008316,7.014587l8.517685,9.519745l28.559326,4.509369l5.010376,-7.515594l6.51355,-5.511475l10.020782,-11.523895l-0.501007,-10.020828l-6.51355,-7.51561l-7.515594,-9.018723l-6.513519,-5.511444l-11.022888,-2.004166l-9.018753,0.501038l-7.014557,2.505203l-10.521851,7.014572l-5.511429,7.51561z" id="path2842" stroke-miterlimit="4" stroke-width="3.6" stroke="black" fill-rule="evenodd" fill-opacity="0.75" fill="none"/>
  <path d="m232.012024,251.671326l-0.501053,9.519775l1.002106,6.388245l3.131485,5.3862l8.392426,4.133575l17.786957,1.753662l5.386169,-2.2547l4.008331,-4.509369l6.388275,-7.39035l0.375763,-6.012451l-3.1315,-7.265106l-4.885162,-5.636703c0,0 -4.25882,-6.764053 -4.885132,-6.38826c-0.626282,0.375748 -8.893463,-0.876831 -8.893463,-0.876831l-6.38826,0.751556l-5.887238,0.626297l-6.764053,5.761963l-5.386169,6.638779l0.250519,0.375778" id="path2844" stroke-miterlimit="4" stroke-width="3.6" stroke="black" fill-rule="evenodd" fill-opacity="0.75" fill="none"/>
  <path d="m237.648727,253.800735l-1.252609,6.638809l2.379944,4.384094l2.505219,3.757782l5.761948,2.505219l12.526016,1.753632l2.129425,-1.628387l2.505219,-3.507263l7.515594,-4.133606l-2.00415,-4.133575l-2.630463,-5.010391l-3.131531,-3.006241l-2.630463,-3.757797l-5.887207,-1.753662l-4.509369,0.375778l-2.880997,-0.125244l-5.511429,2.630463l-4.885147,5.010391z" id="path2846" stroke-miterlimit="4" stroke-width="3.6" stroke="black" fill-rule="evenodd" fill-opacity="0.75" fill="none"/>
  <path d="m190.418076,238.132919l8.50293,-22.674484l19.131607,-21.965942l19.840195,-10.628677l23.383072,-1.417145l31.886047,2.83432l21.257324,16.297302l14.1716,29.760284l2.83429,23.383057l-0.708588,19.840225l-9.211517,27.634521l-16.297272,20.548767l-17.00589,12.045837l-72.983566,-2.125732l-18.423035,-28.343109l-5.66861,-20.548798l-0.708588,-20.548737l0,-24.09169z" id="path2848" stroke-miterlimit="4" stroke-width="3.6" stroke="black" fill-rule="evenodd" fill-opacity="0.75" fill="none"/>
  <path d="m165.617828,264.350311l4.251465,-33.303177l7.085785,-34.720322l26.217422,-27.634552l29.760254,-15.588715l30.468887,-2.83432l43.931824,9.920105l26.925995,22.674484l17.714478,36.137512l4.959991,31.177429l-1.417145,27.634537l-12.754395,37.554657l-18.423035,24.091675l-26.925964,10.628662l-90.698029,2.125732l-26.217392,-36.846069l-12.75441,-22.6745l-2.125732,-28.34314z" id="path2850" stroke-miterlimit="4" stroke-width="3.6" stroke="black" fill-rule="evenodd" fill-opacity="0.75" fill="none"/>
  <path d="m146.486221,224.669937l-11.33725,40.388962l9.92009,36.137482l15.58873,28.34314l34.720322,46.057587l120.458313,8.50293l27.634552,-25.50882l25.508789,-28.343109l22.67453,-49.600494l-2.834351,-34.720337l-12.045837,-39.680374l-18.422974,-43.931854l-38.971832,-27.634537l-55.269073,-17.714455l-39.68042,4.251465l-40.388947,14.171562l-32.594604,41.097534l-4.960037,48.183319z" id="path2852" stroke-miterlimit="4" stroke-width="3.6" stroke="black" fill-rule="evenodd" fill-opacity="0.75" fill="none"/>
  <path d="m118.143097,153.103546l-19.13163,53.143356l2.83432,62.354904l3.542892,50.309052l7.794357,44.640411l65.897789,46.057617l155.887222,12.754395l41.097534,-25.50885l51.726227,-27.634552l34.720306,-74.400696l-14.880096,-55.269104l-20.548828,-52.434784l-36.137482,-61.646309l-50.309052,-34.720337l-72.274963,-24.800247l-52.434799,4.960045l-64.480637,9.92009l-33.303162,72.275009z" id="path2854" stroke-miterlimit="4" stroke-width="3.6" stroke="black" fill-rule="evenodd" fill-opacity="0.75" fill="none"/>
  <path d="m79.879898,121.218002l-15.588799,76.526001c0,0 0,66.606003 0,70.857986c0,4.251007 7.0858,60.229004 7.0858,60.229004l3.754402,63.812012l47.817696,116.102997l232.236,-54.782013l57.149994,-28.005981l39.559998,-40.601013l58.800018,-84.868988l0,-67.315002l-20.548004,-72.984009l-58.812012,-74.400398l-67.315002,-36.846096l-89.98999,-21.257301l-68.731995,2.1257l-74.401001,16.2973l-51.017105,75.109802l0,0z" id="path2856" stroke-miterlimit="4" stroke-width="3.6" stroke="black" fill-rule="evenodd" fill-opacity="0.75" fill="none"/>
  <path d="m0.37399,741.747986l158.664004,-293.174988" stroke-miterlimit="4" stroke-linejoin="round" stroke-linecap="round" stroke-width="3" stroke="black" fill-rule="evenodd" fill-opacity="0.75" fill="none" id="svg_1"/>
  <path d="m3.37399,897.747986l236.332004,-289.587463l126.833008,-129.396851l42.833008,-51.396912l42.958252,-43.349243l77.916504,-80.698425l63.958252,-79.349243l300.832947,-218.396849" stroke-miterlimit="4" stroke-linejoin="round" stroke-linecap="round" stroke-width="3" stroke="black" fill-rule="evenodd" fill-opacity="0.75" fill="none" id="svg_2"/>
 </g>
</svg>